<?xml version="1.0" encoding="utf-8"?>
<!-- Generator: Adobe Illustrator 16.0.5, SVG Export Plug-In . SVG Version: 6.00 Build 0)  -->
<!DOCTYPE svg PUBLIC "-//W3C//DTD SVG 1.1//EN" "http://www.w3.org/Graphics/SVG/1.1/DTD/svg11.dtd">
<svg version="1.1" id="Layer_1" xmlns="http://www.w3.org/2000/svg" xmlns:xlink="http://www.w3.org/1999/xlink" x="0px" y="0px"
	 width="296.969px" height="61.42px" viewBox="0 0 296.969 61.42" enable-background="new 0 0 296.969 61.42" xml:space="preserve">
<path fill="#009530" d="M11.524,38.36c0.662,0,1.485,0,1.485,0.802c0,0.828-0.824,0.828-1.485,0.828H1.692
	C0.19,39.99,0,39.815,0,38.429V21.73c0-0.683,0-1.535,0.985-1.535c1.045,0,1.045,0.924,1.045,1.535V38.36H11.524L11.524,38.36z
	 M15.764,25.572c-0.927,0-0.927,0.776-0.927,1.4v11.972c0,0.612,0,1.373,0.927,1.373c0.896,0,0.896-0.761,0.896-1.373V26.972
	C16.66,26.413,16.66,25.572,15.764,25.572L15.764,25.572z M15.764,20.739c-0.651,0-1.162,0.472-1.162,1.072
	c0,0.593,0.521,1.074,1.162,1.074c0.63,0,1.162-0.491,1.162-1.074C16.925,21.22,16.404,20.739,15.764,20.739L15.764,20.739z
	 M23.041,22.713c-0.009,0.019-0.018,0.04-0.027,0.06C23.023,22.752,23.032,22.732,23.041,22.713L23.041,22.713z M24.744,25.898
	c0.406,0,1.162,0,1.162,0.611c0,0.424-0.391,0.64-1.162,0.64h-1.958v11.795c0,0.612,0,1.373-0.898,1.373
	c-0.927,0-0.927-0.761-0.927-1.373V27.148h-1.545c-0.347,0-1.162,0-1.162-0.64c0-0.611,0.874-0.611,1.162-0.611h1.545v-1.479
	c0-1.671,0.253-2.292,0.443-2.613c0.282-0.494,0.746-0.906,1.343-1.193c0.554-0.268,1.211-0.417,1.85-0.417
	c0.852,0,1.819,0.172,2.155,0.328c0.415,0.191,0.419,0.593,0.419,0.609c0,0.347-0.286,0.72-0.749,0.72
	c-0.109,0-0.398-0.028-0.677-0.057c-0.26-0.027-0.506-0.051-0.59-0.051c-2.204,0-2.369,1.155-2.369,2.917v1.235H24.744
	L24.744,25.898z M27.845,31.762h9.711c-0.12-1.19-0.487-4.803-4.753-4.803C29.363,26.958,28.069,29.97,27.845,31.762L27.845,31.762z
	 M39.471,31.967c0,1.182-0.785,1.182-1.693,1.182h-9.964c0.033,1.71,0.485,3.143,1.31,4.143c0.896,1.087,2.173,1.638,3.798,1.638
	c0.765,0,1.472-0.148,2.102-0.44c1.056-0.488,1.858-1.361,2.388-2.592c0.153-0.368,0.493-0.606,0.866-0.606
	c0.53,0,0.898,0.409,0.898,0.776c0,0.212-0.301,1.286-1.255,2.3c-0.837,0.89-2.393,1.95-5.06,1.95c-1.151,0-2.19-0.19-3.089-0.566
	c-0.854-0.358-1.584-0.882-2.171-1.561c-1.113-1.283-1.7-3.097-1.7-5.245c0-2.213,0.622-4.062,1.798-5.349
	c1.213-1.325,2.998-2.024,5.162-2.024c0.188,0,0.361,0.021,0.541,0.031c0.03,0,0.06,0.003,0.09,0.005
	c0.32,0.021,0.63,0.058,0.928,0.113c0.054,0.009,0.108,0.018,0.16,0.029c0.259,0.054,0.506,0.12,0.746,0.198
	c0.069,0.021,0.138,0.043,0.202,0.067c0.219,0.078,0.427,0.167,0.627,0.268c0.069,0.034,0.136,0.069,0.201,0.104
	c0.095,0.051,0.198,0.093,0.288,0.148c0.822,0.517,1.484,1.237,1.968,2.141C39.46,30.269,39.471,31.898,39.471,31.967L39.471,31.967
	z M48.806,20.196c-1.014,0-1.014,0.924-1.014,1.535v17.052c0,0.648,0,1.535,1.044,1.535c0.986,0,0.986-0.851,0.986-1.535V21.73
	C49.822,21.048,49.822,20.196,48.806,20.196L48.806,20.196z M81.995,30.533c0.66,0,1.025-0.574,1.025-1.036V17.758h-2.091v11.738
	C80.929,29.977,81.313,30.533,81.995,30.533L81.995,30.533z M62.73,32.992c-0.124-0.069-0.265-0.123-0.396-0.185
	c-0.045-0.021-0.09-0.043-0.136-0.062c-0.996-0.444-2.174-0.71-3.33-0.957c-1.119-0.24-2.176-0.466-2.961-0.845
	c-0.877-0.424-1.286-0.978-1.286-1.746c0-1.545,1.84-2.238,3.665-2.238c1.891,0,3.342,0.746,3.785,1.945
	c0.264,0.734,0.472,0.852,0.866,0.852c0.83,0,0.84-0.714,0.84-0.72c0-0.184-0.146-1.03-0.865-1.827
	c-0.433-0.479-0.998-0.86-1.679-1.132c-0.839-0.334-1.86-0.505-3.035-0.505c-2.043,0-3.549,0.554-4.478,1.648
	c-0.851,1.002-0.894,2.095-0.894,2.303c0,1.032,0.53,2,1.419,2.592c0.905,0.599,1.844,0.827,3.711,1.281
	c0.506,0.124,1.08,0.263,1.74,0.431l0.078,0.02c1.019,0.256,2.913,0.729,2.913,2.438c0,1.316-1.279,2.646-4.136,2.646
	c-2.074,0-3.484-0.792-4.194-2.354l-0.021-0.043c-0.197-0.441-0.384-0.861-0.906-0.861c-0.214,0-0.434,0.076-0.605,0.209
	c-0.188,0.148-0.292,0.349-0.292,0.566c0,0.801,0.671,1.926,1.595,2.671c0.456,0.37,0.939,0.632,1.523,0.824
	c0.767,0.251,1.676,0.375,2.784,0.375c2.351,0,4.073-0.572,5.114-1.698c0.922-1,1.023-2.137,1.023-2.58
	C64.569,34.684,63.967,33.686,62.73,32.992L62.73,32.992z M105.584,27.069c-0.663-0.683-1.908-1.497-4.072-1.497
	c-2.85,0-4.039,1.356-4.901,2.364v-1.048c0.001-0.406,0.001-0.864-0.26-1.126c-0.029-0.028-0.069-0.041-0.101-0.062
	c-0.012-0.008-0.024-0.014-0.037-0.021c-0.133-0.079-0.289-0.133-0.5-0.133c-0.929,0-0.929,0.809-0.929,1.399v11.974
	c0,0.657,0,1.4,0.929,1.4c0.211,0,0.367-0.054,0.5-0.135c0.013-0.006,0.025-0.014,0.037-0.021c0.031-0.021,0.072-0.033,0.101-0.062
	c0.262-0.262,0.262-0.72,0.26-1.126v-5.106c0-2.281,0.076-3.447,0.528-4.338c0.38-0.741,0.998-1.372,1.782-1.822
	c0.749-0.432,1.616-0.668,2.443-0.668c1.227,0,2.323,0.496,2.933,1.325c0.54,0.72,0.615,1.805,0.615,2.869v7.74
	c-0.001,0.406-0.001,0.864,0.26,1.126c0.027,0.029,0.069,0.041,0.101,0.062c0.01,0.007,0.022,0.015,0.034,0.021
	c0.134,0.081,0.291,0.135,0.502,0.135c0.927,0,0.927-0.775,0.927-1.4v-8.118C106.737,30.043,106.737,28.271,105.584,27.069
	L105.584,27.069z M84.899,19.94v2.013c3.359,1.162,5.782,4.348,5.782,8.098c0,4.729-3.848,8.578-8.576,8.578
	c-4.729,0-8.575-3.849-8.575-8.578c0-3.676,2.33-6.812,5.588-8.028v-2.033c-4.338,1.289-7.515,5.31-7.515,10.061
	c0,5.791,4.711,10.501,10.501,10.501s10.502-4.711,10.502-10.501C92.607,25.229,89.337,21.167,84.899,19.94L84.899,19.94z
	 M161.296,22.144v-4.707c-3.037-1.307-5.482-1.875-8.191-1.875c-5.616,0-9.222,2.761-9.222,6.935c0,8.65,12.324,7.203,12.324,11.159
	c0,1.414-1.25,2.224-3.57,2.224c-2.672,0-4.793-0.811-8.258-3.108v5.196c2.404,1.241,4.488,2.337,8.726,2.337
	c5.399,0,9.288-2.691,9.288-7.324c0-8.403-12.323-7.381-12.323-11.014c0-1.204,1.392-1.982,3.568-1.982
	C155.708,19.986,157.798,20.59,161.296,22.144 M178.551,39.203v-3.694c-2.268,0.847-3.368,1.133-4.606,1.133
	c-2.937,0-4.884-1.908-4.884-4.807c0-2.854,1.982-4.707,5.063-4.707c1.274,0,2.833,0.393,4.177,1.106v-3.821
	c-1.699-0.632-3.824-1.059-5.486-1.059c-5.383,0-9.238,3.526-9.238,8.519c0,5.085,3.71,8.429,9.451,8.429
	C174.759,40.303,176.498,39.947,178.551,39.203 M223.295,30.003h7.086c-0.211-2.233-1.556-3.583-3.542-3.583
	C224.823,26.42,223.506,27.732,223.295,30.003L223.295,30.003z M226.486,23.36c4.751,0,8.668,3.381,8.424,9.349h-11.724
	c0.179,2.857,2.158,4.534,5.394,4.534c2.051,0,3.641-0.592,6.042-2.302v3.191c-2.932,2.171-6.012,2.171-7.283,2.171
	c-5.745,0-9.474-3.339-9.474-8.381C217.866,26.918,221.451,23.36,226.486,23.36 M242.023,40.005V23.661h-5.127v16.344H242.023
	L242.023,40.005z M256.292,35.537v-7.802c-0.749-0.533-1.956-0.958-2.881-0.958c-2.585,0-4.112,1.881-4.112,5.144
	c0,2.977,1.527,4.964,3.941,4.964C254.335,36.885,255.224,36.499,256.292,35.537L256.292,35.537z M256.292,15.864h5.125v24.137
	h-5.125v-1.316c-1.464,1.167-2.808,1.624-4.548,1.624c-4.387,0-7.623-3.602-7.623-8.494c0-5.003,3.236-8.459,7.912-8.459
	c1.493,0,2.874,0.352,4.259,1.023V15.864 M269.005,30.003h7.095c-0.212-2.233-1.569-3.583-3.556-3.583
	C270.529,26.42,269.218,27.732,269.005,30.003L269.005,30.003z M272.194,23.36c4.749,0,8.67,3.381,8.426,9.349h-11.72
	c0.179,2.857,2.166,4.534,5.386,4.534c2.06,0,3.652-0.592,6.056-2.302v3.191c-2.939,2.171-6.023,2.171-7.294,2.171
	c-5.74,0-9.468-3.339-9.468-8.381C263.579,26.918,267.158,23.36,272.194,23.36 M288.295,28.342v-4.697h-5.135v16.338h5.135v-7.05
	c1.134-2.997,2.338-4.77,4.219-4.77c0.813,0,1.697,0.354,3.044,1.204l1.411-4.531c-1.487-1.101-2.371-1.491-3.395-1.491
	c-1.979,0-3.683,1.595-5.204,4.997H288.295 M242.263,16.786c-0.485-1.273-2.126-1.563-3.672-0.647
	c-1.548,0.906-2.411,2.679-1.925,3.951c0.479,1.27,2.117,1.559,3.667,0.648C241.878,19.828,242.746,18.056,242.263,16.786
	 M197.017,29.603c0-4.428-3.009-6.243-5.98-6.243c-2.02,0-3.681,0.854-5.167,2.733h-0.07v-10.23h-5.13v24.095h5.13V29.603
	c1.201-1.735,2.228-2.479,3.429-2.479c1.595,0,2.657,1.135,2.657,3.577v5.741c1.722-0.885,3.471-1.429,5.131-1.629V29.603
	 M209.891,23.355c-2.091,0-3.688,0.777-5.321,2.645v-2.339h-5.13v11.106c1.778,0.178,4.044,0.993,5.13,2.339v-7.631
	c1.349-2.024,2.306-2.699,3.582-2.699c1.452,0,2.558,0.958,2.558,3.263v9.923h5.13V29.616
	C215.839,24.804,212.44,23.355,209.891,23.355 M218.674,44.656v-1.813h-7.962v14.053h8.14V55.08h-6.142v-4.37h5.753v-1.818h-5.753
	v-4.236H218.674L218.674,44.656z M225.369,56.904V42.837h-1.825v14.067H225.369L225.369,56.904z M234.411,49.026
	c-1.398,0-2.242,0.829-2.493,2.292h4.651C236.509,49.918,235.706,49.026,234.411,49.026 M231.883,52.539
	c0.286,1.837,1.337,2.787,3.106,2.787c1.105,0,2.156-0.409,3.242-1.118v1.777c-1.121,0.744-2.136,1.093-3.703,1.093
	c-2.875,0-4.472-2.368-4.472-4.935c0-2.806,1.767-4.687,4.313-4.687c2.454,0,4.021,1.655,4.021,5.083H231.883 M250.315,50.064
	v-1.973c-0.884-0.388-1.605-0.636-2.676-0.636c-2.806,0-4.56,1.937-4.56,5.002c0,2.719,1.919,4.62,4.684,4.62
	c0.967,0,2.141-0.24,2.757-0.533v-1.8c-0.921,0.412-1.668,0.615-2.45,0.615c-1.903,0-3.136-1.152-3.136-3.065
	c0-1.879,1.158-3.161,2.829-3.161C248.564,49.134,249.265,49.345,250.315,50.064 M258.636,47.63v-1.916l-3.432,3.357v0.204h1.613
	v4.895c0,1.671,1.004,2.906,2.992,2.906c0.605,0,1.587-0.263,2.231-0.615v-1.714c-0.742,0.457-1.423,0.689-2.085,0.689
	c-0.531,0-1.319-0.314-1.319-1.403v-4.757h2.931V47.63H258.636 M268.55,47.63h-1.823v9.275h1.823v-4.836
	c0-1.584,0.987-2.862,2.244-2.862c0.434,0,1.154,0.38,1.71,0.929l0.967-1.608c-0.764-0.725-1.461-1.074-2.204-1.074
	c-0.862,0-1.748,0.68-2.679,2.323h-0.038V47.63 M292.185,50.064v-1.973c-0.896-0.388-1.607-0.636-2.683-0.636
	c-2.806,0-4.567,1.937-4.567,5.002c0,2.719,1.927,4.62,4.689,4.62c0.964,0,2.14-0.24,2.769-0.533v-1.8
	c-0.935,0.412-1.676,0.615-2.461,0.615c-1.891,0-3.125-1.152-3.125-3.065c0-1.879,1.149-3.161,2.817-3.161
	C290.429,49.134,291.129,49.345,292.185,50.064 M280.138,56.904V47.63h-1.827v9.273H280.138L280.138,56.904z M280.199,44.3
	c-0.166-0.452-0.749-0.557-1.297-0.23c-0.554,0.324-0.856,0.953-0.69,1.405c0.167,0.448,0.751,0.553,1.306,0.229
	C280.065,45.379,280.377,44.748,280.199,44.3 M198.459,45.049h3l0.633-2.935h-4.963c-3.487,0-5.789,2.408-6.171,4.586l-1.293,5.427
	c-0.012,0.145-0.112,0.286-0.189,0.375c-0.208,0.233-0.456,0.35-0.774,0.35h-3.116l-0.84,3.192h2.946h1.902
	c3.486,0,6.162-2.176,6.547-4.353l1.638-6.211c0.018-0.115,0.039-0.174,0.09-0.23C198,45.101,198.137,45.049,198.459,45.049
	L198.459,45.049z M199.579,48.834h4.983c-0.238,0.64-0.548,1.271-0.88,1.911h-4.563l-0.594,2.01h3.902
	c-0.728,1.029-1.533,2.031-2.51,2.958c-5.575,5.335-13.038,6.579-16.574,3.044c-1.818-1.821-2.279-4.692-1.556-7.767h4.229
	l0.688-2.014h-4.302c0.25-0.64,0.575-1.269,0.921-1.903h3.628l0.705-2.014h-3.037c0.671-0.917,1.406-1.812,2.276-2.64
	c5.58-5.336,13.067-6.551,16.645-2.976c1.769,1.77,2.259,4.468,1.636,7.382h-5.045L199.579,48.834 M125.883,61.42V0h-1.054v61.42
	H125.883L125.883,61.42z"/>
</svg>
