<?xml version="1.0"?>
<svg xmlns="http://www.w3.org/2000/svg" viewBox="0 0 50 50">
    <path d="M 37.931641 2.0019531 C 37.571969 2.0028906 37.227781 2.19675 37.050781 2.53125 L 36.046875 4.4238281 C 35.841875 4.8088281 35.909797 5.28275 36.216797 5.59375 L 38.523438 7.9296875 L 34.929688 16.398438 C 32.949877 15.420052 31.165288 15 30 15 C 28.679 15 27.409063 16.063953 26.289062 17.001953 C 25.844062 17.375953 25.172906 17.94 25.003906 18 C 24.672906 17.989 23.464031 17.531266 22.582031 17.197266 C 20.670031 16.473266 19.347109 16 18.412109 16 C 17.486773 16 16.430478 16.413643 15.355469 17.042969 A 1.0001 1.0001 0 0 0 15.058594 17 L 7 17 A 1.0001 1.0001 0 0 0 6.7539062 17.03125 C 6.7472863 17.032937 6.740951 17.03529 6.734375 17.037109 A 1.0001 1.0001 0 0 0 6.5214844 17.123047 C 6.520955 17.123336 6.5200601 17.122757 6.5195312 17.123047 C 6.509254 17.128683 6.5003068 17.136584 6.4902344 17.142578 A 1.0001 1.0001 0 0 0 6.3183594 17.271484 C 6.3099029 17.279379 6.3011605 17.286721 6.2929688 17.294922 A 1.0001 1.0001 0 0 0 6.1503906 17.474609 C 6.1481591 17.478234 6.1447667 17.480715 6.1425781 17.484375 L 6.1328125 17.505859 A 1.0001 1.0001 0 0 0 6.1230469 17.521484 L 0.12304688 28.521484 A 1.0001 1.0001 0 0 0 0.083984375 28.601562 C 0.080889576 28.608648 0.079106143 28.615877 0.076171875 28.623047 A 1.0001 1.0001 0 0 0 0.001953125 28.988281 C 0.0019030348 28.99241 0 28.995859 0 29 L 0 33 C 0 33.553 0.448 34 1 34 L 49 34 C 49.553 34 50 33.553 50 33 L 50 29 C 50 28.995859 49.998097 28.99241 49.998047 28.988281 A 1.0001 1.0001 0 0 0 49.923828 28.621094 C 49.921332 28.615018 49.918627 28.60953 49.916016 28.603516 A 1.0001 1.0001 0 0 0 49.876953 28.521484 L 43.876953 17.521484 A 1.0001 1.0001 0 0 0 43.869141 17.509766 L 43.857422 17.484375 C 43.853525 17.477859 43.847782 17.473203 43.84375 17.466797 A 1.0001 1.0001 0 0 0 43.697266 17.283203 A 1.0001 1.0001 0 0 0 43.505859 17.140625 C 43.4954 17.134456 43.485288 17.128831 43.474609 17.123047 A 1.0001 1.0001 0 0 0 43.267578 17.037109 C 43.257925 17.034439 43.24803 17.033634 43.238281 17.03125 A 1.0001 1.0001 0 0 0 43 17 L 36.845703 17 L 40.369141 8.6972656 L 43.964844 8.8261719 C 44.367844 8.8411719 44.73525 8.6159063 44.90625 8.2539062 L 45.904297 6.1308594 C 46.022297 5.8798594 46.031734 5.5880781 45.927734 5.3300781 C 45.823734 5.0720781 45.617422 4.8695312 45.357422 4.7695312 L 38.289062 2.0664062 C 38.171312 2.0214063 38.051531 2.0016406 37.931641 2.0019531 z M 38.400391 4.25 L 43.636719 6.2539062 L 43.376953 6.8027344 L 40.103516 6.6835938 L 38.15625 4.7109375 L 38.400391 4.25 z M 30 17 C 31.627 17 37.927641 18.622 41.931641 26 L 46.224609 26 L 47.316406 28 L 2.6835938 28 L 3.7753906 26 L 8.703125 26 C 9.310125 25.209 9.7568594 24.654297 9.7558594 24.654297 C 11.984859 22.082297 16.304109 18 18.412109 18 C 19.051109 18 20.682047 18.618359 21.873047 19.068359 C 23.445047 19.664359 24.367 20 25 20 C 25.828 20 26.599219 19.354156 27.574219 18.535156 C 28.304219 17.924156 29.406 17 30 17 z M 31.248047 20.029297 A 1 1 0 0 0 30.248047 21.029297 A 1 1 0 0 0 31.248047 22.029297 A 1 1 0 0 0 32.248047 21.029297 A 1 1 0 0 0 31.248047 20.029297 z M 18.248047 21.029297 A 1 1 0 0 0 17.248047 22.029297 A 1 1 0 0 0 18.248047 23.029297 A 1 1 0 0 0 19.248047 22.029297 A 1 1 0 0 0 18.248047 21.029297 z M 27.248047 22.029297 A 1 1 0 0 0 26.248047 23.029297 A 1 1 0 0 0 27.248047 24.029297 A 1 1 0 0 0 28.248047 23.029297 A 1 1 0 0 0 27.248047 22.029297 z M 34.248047 22.029297 A 1 1 0 0 0 33.248047 23.029297 A 1 1 0 0 0 34.248047 24.029297 A 1 1 0 0 0 35.248047 23.029297 A 1 1 0 0 0 34.248047 22.029297 z M 2 36 L 2 45 C 2 45.553 2.448 46 3 46 L 47 46 C 47.553 46 48 45.553 48 45 L 48 36 L 2 36 z"/>
</svg>
